HIERARCHY
ROOT Hips
{
	OFFSET	0.00	0.00	0.00
	CHANNELS 6 Xposition Yposition Zposition Zrotation Xrotation Yrotation
	JOINT LeftUpLeg
	{
		OFFSET	 0.126116	-0.014019	-0.065224
		CHANNELS 3 Zrotation Xrotation Yrotation
		JOINT LeftLeg
		{
			OFFSET	 0.000000	 0.000000	 0.569914
			CHANNELS 3 Zrotation Xrotation Yrotation
			JOINT LeftFoot
			{
				OFFSET	 0.000000	 0.000000	 0.544423
				CHANNELS 3 Zrotation Xrotation Yrotation
				JOINT LeftToeBase
				{
					OFFSET	 0.000000	 0.000000	 0.207117
					CHANNELS 3 Zrotation Xrotation Yrotation
					End Site
					{
						OFFSET	 0.000000	 0.000000	 0.207117
					}
				}
			}
		}
	}
	JOINT RightUpLeg
	{
		OFFSET	-0.124023	-0.008373	-0.065224
		CHANNELS 3 Zrotation Xrotation Yrotation
		JOINT RightLeg
		{
			OFFSET	 0.000000	 0.000000	 0.570047
			CHANNELS 3 Zrotation Xrotation Yrotation
			JOINT RightFoot
			{
				OFFSET	 0.000000	 0.000000	 0.544354
				CHANNELS 3 Zrotation Xrotation Yrotation
				JOINT RightToeBase
				{
					OFFSET	 0.000000	 0.000000	 0.207540
					CHANNELS 3 Zrotation Xrotation Yrotation
					End Site
					{
						OFFSET	 0.000000	 0.000000	 0.207540
					}
				}
			}
		}
	}
	JOINT Spine
	{
		OFFSET	 0.000184	-0.007763	 0.117403
		CHANNELS 3 Zrotation Xrotation Yrotation
		JOINT Spine1
		{
			OFFSET	 0.000000	 0.000000	 0.137269
			CHANNELS 3 Zrotation Xrotation Yrotation
			JOINT Spine2
			{
				OFFSET	 0.000000	 0.000000	 0.156879
				CHANNELS 3 Zrotation Xrotation Yrotation
				JOINT LeftShoulder
				{
					OFFSET	 0.080501	-0.002496	 0.160144
					CHANNELS 3 Zrotation Xrotation Yrotation
					JOINT LeftArm
					{
						OFFSET	 0.000000	 0.000000	 0.164363
						CHANNELS 3 Zrotation Xrotation Yrotation
						JOINT LeftForeArm
						{
							OFFSET	 0.000000	 0.000000	 0.364576
							CHANNELS 3 Zrotation Xrotation Yrotation
							JOINT LeftHand
							{
								OFFSET	 0.000000	 0.000000	 0.360812
								CHANNELS 3 Zrotation Xrotation Yrotation
								JOINT LeftHandIndex1
								{
									OFFSET	 0.000000	 0.000000	 0.086006
									CHANNELS 3 Zrotation Xrotation Yrotation
									JOINT LeftHandIndex2
									{
										OFFSET	 0.000000	 0.000000	 0.047237
										CHANNELS 3 Zrotation Xrotation Yrotation
										JOINT LeftHandIndex3
										{
											OFFSET	-0.004284	-0.000551	 0.038165
											CHANNELS 3 Zrotation Xrotation Yrotation
											End Site
											{
												OFFSET	-0.004284	-0.000551	 0.038165
											}
										}
									}
								}
							}
						}
					}
				}
				JOINT Neck
				{
					OFFSET	 0.000000	 0.000000	 0.176489
					CHANNELS 3 Zrotation Xrotation Yrotation
					JOINT Head
					{
						OFFSET	 0.000000	-0.001747	 0.077940
						CHANNELS 3 Zrotation Xrotation Yrotation
						End Site
						{
							OFFSET	 0.000000	-0.001747	 0.077940
						}
					}
				}
				JOINT RightShoulder
				{
					OFFSET	-0.080363	 0.000306	 0.159706
					CHANNELS 3 Zrotation Xrotation Yrotation
					JOINT RightArm
					{
						OFFSET	 0.000000	 0.000000	 0.164196
						CHANNELS 3 Zrotation Xrotation Yrotation
						JOINT RightForeArm
						{
							OFFSET	 0.000000	 0.000000	 0.365611
							CHANNELS 3 Zrotation Xrotation Yrotation
							JOINT RightHand
							{
								OFFSET	 0.000000	 0.000000	 0.360648
								CHANNELS 3 Zrotation Xrotation Yrotation
								JOINT RightHandIndex1
								{
									OFFSET	 0.000000	 0.000000	 0.069977
									CHANNELS 3 Zrotation Xrotation Yrotation
									JOINT RightHandIndex2
									{
										OFFSET	 0.000000	 0.000000	 0.052305
										CHANNELS 3 Zrotation Xrotation Yrotation
										JOINT RightHandIndex3
										{
											OFFSET	 0.009002	-0.000782	 0.042196
											CHANNELS 3 Zrotation Xrotation Yrotation
											End Site
											{
												OFFSET	 0.009002	-0.000782	 0.042196
											}
										}
									}
								}
							}
						}
					}
				}
			}
		}
	}
}
MOTION
Frames:    13
Frame Time: 0.03333334
-0.720267	-0.006059	 1.272503	-177.085200	-5.583467	 0.282370	 8.883132	 4.537917	 176.819000	-4.097498	-9.626567	-0.932816	-9.007130	 71.342010	 0.068834	-2.385833	 28.452760	 0.000004	-8.271732	 4.013483	-178.279700	 2.015725	-12.141210	 0.470543	 6.768814	 72.884990	-0.709928	 2.384659	 28.388700	-0.000001	 0.342480	 6.124383	-2.294141	 1.283816	 11.789480	 6.019190	-6.026841	-9.868474	-6.624392	-91.776250	 78.527380	-179.999900	-11.097810	 0.507562	 4.232521	-14.726320	-3.246382	-41.487390	 0.421065	-9.073190	-2.257508	-4.130354	 21.526190	 0.991307	-5.167926	 0.731697	 3.519349	-1.378229	 35.397820	-2.634230	-8.025357	 0.943995	 3.431590	-5.456302	-16.643910	-4.593943	 89.782070	 78.203900	-180.000000	 23.247130	-3.068461	 1.659827	 7.865626	-2.781284	 34.552210	 33.518640	 47.691290	-1.477705	 5.716295	 19.173350	-3.684826	 5.027458	 0.246833	-9.377971	-2.350882	 35.473990	 5.254307
-0.720055	-0.006062	 1.272502	-176.907100	-5.862586	 0.302203	 9.940137	 4.705068	 176.540100	-4.755902	-9.733835	-1.055575	-7.290629	 70.696470	-1.017752	-2.385833	 28.452760	 0.000004	-8.837175	 4.391808	-178.161900	 2.496576	-12.061270	 0.568148	 6.083562	 72.013730	-0.478803	 2.384659	 28.388700	-0.000001	 0.273928	 6.298325	-2.445571	 1.320347	 12.269430	 6.377467	-6.421478	-10.346790	-7.063473	-91.776150	 78.527400	 180.000000	-11.231010	 1.368195	 4.979634	-15.053330	-3.116012	-42.993290	-0.275944	-9.709908	-2.251259	-4.130354	 21.526190	 0.991307	-5.167926	 0.731697	 3.519349	-1.378229	 35.397820	-2.634230	-8.417680	 1.128629	 3.735914	-5.787452	-17.078450	-5.030504	 89.782110	 78.203890	 180.000000	 24.656540	-2.211201	 1.218668	 8.290672	-2.640318	 36.170480	 38.028840	 49.173330	-4.454376	 5.716295	 19.173350	-3.684826	 5.027458	 0.246833	-9.377971	-2.350882	 35.473990	 5.254307
-0.719923	-0.006067	 1.272493	-176.793000	-6.043983	 0.313102	 10.614710	 4.790683	 176.355800	-5.177518	-9.850235	-1.141086	-6.226941	 70.312420	-1.681714	-2.385833	 28.452760	 0.000004	-9.201086	 4.642828	-178.079300	 2.803754	-12.005720	 0.629616	 5.649408	 71.459470	-0.334379	 2.384659	 28.388700	-0.000001	 0.222307	 6.419025	-2.535807	 1.338668	 12.559000	 6.596844	-6.675147	-10.644440	-7.340955	-91.776230	 78.527360	-179.999900	-11.286600	 1.986360	 5.531054	-15.265640	-3.031889	-44.097340	-0.718287	-10.124880	-2.252319	-4.130354	 21.526190	 0.991307	-5.167926	 0.731697	 3.519349	-1.378229	 35.397820	-2.634230	-8.669613	 1.244835	 3.932384	-6.001909	-17.354100	-5.315073	 89.782100	 78.203890	 180.000000	 25.626550	-1.573560	 0.861885	 8.564752	-2.548559	 37.378250	 41.200220	 49.882400	-6.705207	 5.716295	 19.173350	-3.684826	 5.027458	 0.246833	-9.377971	-2.350882	 35.473990	 5.254307
-0.719839	-0.006068	 1.272483	-176.720400	-6.158466	 0.319023	 11.043930	 4.837440	 176.236500	-5.446557	-9.937832	-1.198200	-5.559969	 70.076630	-2.095666	-2.385833	 28.452760	 0.000004	-9.433976	 4.804350	-178.023600	 2.999316	-11.968440	 0.668363	 5.374039	 71.107480	-0.243618	 2.384659	 28.388700	-0.000001	 0.185971	 6.494828	-2.590172	 1.348214	 12.738530	 6.733018	-6.837333	-10.830690	-7.516822	-91.776190	 78.527420	-180.000000	-11.309430	 2.410406	 5.912874	-15.401960	-2.977334	-44.858830	-0.998778	-10.392480	-2.255065	-4.130354	 21.526190	 0.991307	-5.167926	 0.731697	 3.519349	-1.378229	 35.397820	-2.634230	-8.830608	 1.318163	 4.058350	-6.139519	-17.528960	-5.498589	 89.782080	 78.203870	-180.000000	 26.271630	-1.128267	 0.602831	 8.739885	-2.488437	 38.218690	 43.323630	 50.222860	-8.264957	 5.716295	 19.173350	-3.684826	 5.027458	 0.246833	-9.377971	-2.350882	 35.473990	 5.254307
-0.719528	-0.006093	 1.272372	-176.428300	-6.617786	 0.341200	 12.665980	 4.918780	 175.742100	-6.470876	-10.535660	-1.459834	-3.202429	 69.340480	-3.500916	-2.385833	 28.452760	 0.000004	-10.315110	 5.288092	-177.787700	 3.741701	-12.231590	 0.840711	 4.523194	 70.017590	-0.103850	 2.384659	 28.388700	-0.000001	-0.030507	 6.833370	-2.798290	 1.335447	 13.313080	 7.252615	-7.447012	-11.465060	-8.183481	-91.776180	 78.527430	-180.000000	-11.275820	 4.612357	 7.917686	-15.925150	-2.824450	-48.864160	-2.054465	-11.424190	-2.288345	-4.130354	 21.526190	 0.991307	-5.167926	 0.731697	 3.519349	-1.378229	 35.397820	-2.634230	-9.444854	 1.586601	 4.569569	-6.667161	-18.155330	-6.262886	 89.782110	 78.203870	 180.000000	 28.783330	 1.089656	-0.984138	 9.446753	-2.266657	 42.762840	 51.956000	 50.231400	-14.676560	 5.716295	 19.173350	-3.684826	 5.027458	 0.246833	-9.377971	-2.350882	 35.473990	 5.254307
-0.719589	-0.006167	 1.271915	-176.302500	-6.677454	 0.376589	 12.432420	 4.289165	 175.589800	-6.357368	-12.240720	-1.668108	-4.682380	 70.425960	-2.092781	-2.385833	 28.452760	 0.000004	-10.173650	 5.280035	-177.780500	 3.612989	-12.977650	 0.862096	 5.783270	 70.789890	-1.338506	 2.384659	 28.388700	-0.000001	-0.566647	 6.939705	-2.947839	 0.988841	 12.695790	 7.437878	-7.286291	-10.902320	-8.166810	-91.776190	 78.527420	-180.000000	-11.061430	 8.417898	 11.225810	-16.004460	-3.503267	-55.730750	-1.940275	-11.234190	-2.340780	-4.130354	 21.526190	 0.991307	-5.167926	 0.731697	 3.519349	-1.378229	 35.397820	-2.634230	-9.370653	 1.514398	 4.762646	-6.576688	-17.798880	-6.645401	 89.782090	 78.203850	 180.000000	 27.129410	 3.448322	-4.420727	 9.834633	-2.550738	 51.049080	 51.400810	 46.199890	-12.612940	 5.716295	 19.173350	-3.684826	 5.027458	 0.246833	-9.377971	-2.350882	 35.473990	 5.254307
-0.719695	-0.006279	 1.271245	-176.187300	-6.767153	 0.339036	 12.292100	 3.641373	 175.419100	-6.332280	-14.209090	-1.924771	-6.603539	 71.701320	-0.153545	-2.385833	 28.452760	 0.000004	-10.071450	 5.253012	-177.656400	 3.548476	-14.049770	 0.916202	 6.929320	 71.782100	-2.502002	 2.384659	 28.388700	-0.000001	-1.240449	 7.086287	-2.970995	 0.530062	 11.893130	 7.495254	-7.116607	-10.268990	-8.071454	-91.776210	 78.527380	-180.000000	-10.942370	 13.985960	 15.070490	-16.324620	-4.175143	-63.678870	-1.894803	-11.098460	-2.381203	-4.130354	 21.526190	 0.991307	-5.167926	 0.731697	 3.519349	-1.378229	 35.397820	-2.634230	-9.299777	 1.433946	 4.880198	-6.497528	-17.484940	-6.894177	 89.782030	 78.203890	-180.000000	 25.048750	 6.991458	-8.229636	 10.330280	-2.815438	 60.931430	 50.673210	 41.494580	-10.654460	 5.716295	 19.173350	-3.684826	 5.027458	 0.246833	-9.377971	-2.350882	 35.473990	 5.254307
-0.719802	-0.006369	 1.270705	-176.125200	-6.842521	 0.240491	 12.324760	 3.275789	 175.324200	-6.406405	-15.490670	-2.114295	-8.040435	 72.556360	 1.382832	-2.385833	 28.452760	 0.000004	-10.058870	 5.225038	-177.470900	 3.577772	-14.889920	 0.977334	 7.329090	 72.487630	-2.950246	 2.384659	 28.388700	-0.000001	-1.727806	 7.205247	-2.851029	 0.188616	 11.292150	 7.402173	-7.013491	-9.851641	-7.936776	-91.776240	 78.527400	-180.000000	-10.911880	 18.456110	 17.504860	-16.623480	-4.512892	-68.636420	-1.932291	-11.086740	-2.397238	-4.130354	 21.526190	 0.991307	-5.167926	 0.731697	 3.519349	-1.378229	 35.397820	-2.634230	-9.259800	 1.374519	 4.868882	-6.463150	-17.336060	-6.897595	 89.782140	 78.203890	 180.000000	 23.536710	 9.944579	-10.562090	 10.675320	-2.949935	 67.544330	 50.115820	 38.542720	-9.342994	 5.716295	 19.173350	-3.684826	 5.027458	 0.246833	-9.377971	-2.350882	 35.473990	 5.254307
-0.719972	-0.006537	 1.269718	-176.046300	-6.956547	 0.071762	 12.382790	 2.700702	 175.127100	-6.543054	-17.618890	-2.437924	-10.950410	 73.928820	 4.480892	-2.385833	 28.452760	 0.000004	-10.003010	 5.246376	-177.151300	 3.610241	-16.267680	 1.074547	 8.144922	 73.728810	-3.830140	 2.384659	 28.388700	-0.000001	-2.602848	 7.385440	-2.614612	-0.448931	 10.191300	 7.152783	-6.822248	-9.104781	-7.663011	-91.776150	 78.527420	 180.000000	-10.708660	 26.983490	 20.830720	-17.089870	-4.924082	-75.247020	-2.013202	-11.070550	-2.417629	-4.130354	 21.526190	 0.991307	-5.167926	 0.731697	 3.519349	-1.378229	 35.397820	-2.634230	-9.176038	 1.250863	 4.825369	-6.394948	-17.075040	-6.827347	 89.782120	 78.203900	 180.000000	 20.271350	 15.602630	-13.613100	 11.226260	-3.099521	 77.853850	 47.770730	 33.459290	-6.577881	 5.716295	 19.173350	-3.684826	 5.027458	 0.246833	-9.377971	-2.350882	 35.473990	 5.254307
-0.720190	-0.006749	 1.268468	-176.047200	-7.011756	-0.185885	 12.603120	 2.083051	 174.892700	-6.748506	-19.949840	-2.819011	-15.259810	 75.207980	 9.096206	-2.385833	 28.452760	 0.000004	-9.728849	 5.282221	-176.755400	 3.554877	-17.847700	 1.158610	 9.063559	 75.309100	-4.703331	 2.384659	 28.388700	-0.000001	-3.680398	 7.503231	-2.147044	-1.285107	 8.731341	 6.552967	-6.499753	-8.096560	-7.164707	-91.776180	 78.527400	-180.000000	-9.929623	 38.047970	 22.746530	-17.407340	-5.060150	-79.074080	-2.213704	-11.104280	-2.432003	-4.130354	 21.526190	 0.991307	-5.167926	 0.731697	 3.519349	-1.378229	 35.397820	-2.634230	-8.948333	 0.916965	 4.620082	-6.229016	-16.586390	-6.293875	 89.782100	 78.203870	 180.000000	 14.819530	 23.217740	-15.169170	 11.779420	-3.321094	 88.065320	 42.424690	 27.870260	-2.261726	 5.716295	 19.173350	-3.684826	 5.027458	 0.246833	-9.377971	-2.350882	 35.473990	 5.254307
-0.720345	-0.006978	 1.267182	-176.055100	-7.056067	-0.296592	 12.717930	 1.483941	 174.472900	-6.935771	-22.264130	-3.201993	-20.511810	 76.525670	 14.615090	-2.385833	 28.452760	 0.000004	-9.516569	 5.563557	-176.488800	 3.489176	-19.106870	 1.215791	 10.556230	 76.728710	-6.170002	 2.384659	 28.388700	-0.000001	-4.823422	 7.671196	-1.891752	-2.213766	 7.044168	 5.911956	-6.173003	-6.904082	-6.607359	-91.776150	 78.527420	 180.000000	-7.724056	 49.355880	 21.054850	-17.234020	-5.089332	-77.288220	-2.323250	-11.074940	-2.450203	-4.130354	 21.526190	 0.991307	-5.167926	 0.731697	 3.519349	-1.378229	 35.397820	-2.634230	-8.757400	 0.683504	 4.519624	-6.080770	-16.106740	-6.058764	 89.782060	 78.203830	-180.000000	 7.290143	 31.898480	-13.576870	 12.249170	-3.606015	 95.700070	 34.663820	 22.307460	 2.235413	 5.716295	 19.173350	-3.684826	 5.027458	 0.246833	-9.377971	-2.350882	 35.473990	 5.254307
-0.720410	-0.007220	 1.266004	-176.077300	-7.090202	-0.109030	 12.670390	 0.877922	 173.771200	-7.063568	-24.479310	-3.555112	-26.688710	 77.946660	 20.939680	-2.385833	 28.452760	 0.000004	-9.397426	 6.122145	-176.512900	 3.399364	-19.852530	 1.230734	 12.904770	 77.742500	-8.521666	 2.384659	 28.388700	-0.000001	-5.913104	 7.979595	-2.111561	-3.157772	 5.095654	 5.373369	-5.849737	-5.460132	-6.035347	-91.776180	 78.527400	-180.000000	-3.223600	 58.695980	 13.985160	-16.488150	-4.952076	-69.087970	-2.245250	-10.931310	-2.476381	-4.130354	 21.526190	 0.991307	-5.167926	 0.731697	 3.519349	-1.378229	 35.397820	-2.634230	-8.628815	 0.642570	 4.619797	-5.951734	-15.628700	-6.406261	 89.782100	 78.203870	 180.000000	-2.420835	 40.396160	-8.001709	 12.611760	-4.185627	 99.842900	 25.264690	 17.459170	 6.320704	 5.716295	 19.173350	-3.684826	 5.027458	 0.246833	-9.377971	-2.350882	 35.473990	 5.254307
-0.720469	-0.007494	 1.264879	-176.088800	-7.045624	 0.090412	 12.666300	 0.289648	 173.035500	-7.186537	-26.520440	-3.886096	-33.892010	 79.040520	 28.298920	-2.385833	 28.452760	 0.000004	-9.231735	 6.704761	-176.566900	 3.318116	-20.466150	 1.238652	 15.627610	 78.755840	-11.244100	 2.384659	 28.388700	-0.000001	-7.087286	 8.328016	-2.273516	-4.157951	 2.892264	 4.577043	-5.504906	-3.867653	-5.323349	-91.776240	 78.527420	-180.000000	 4.104036	 65.255510	-0.396406	-15.091180	-4.244262	-52.247160	-2.177532	-10.819480	-2.497591	-4.130354	 21.526190	 0.991307	-5.167926	 0.731697	 3.519349	-1.378229	 35.397820	-2.634230	-8.433215	 0.534730	 4.613569	-5.789985	-15.083760	-6.566572	 89.782100	 78.203900	 180.000000	-15.946890	 47.925120	 2.818337	 12.765340	-4.749530	 100.543400	 14.694750	 12.794930	 10.621670	 5.716295	 19.173350	-3.684826	 5.027458	 0.246833	-9.377971	-2.350882	 35.473990	 5.254307
